<svg width="160" height="39" viewBox="0 0 160 39" fill="none" xmlns="http://www.w3.org/2000/svg">
<path d="M58.856 15.1556H53.288V12.6116H67.568V15.1556H61.976V29.6996H58.856V15.1556ZM74.1209 17.2916C74.5849 17.2916 74.9849 17.3556 75.3209 17.4836L75.2969 20.2196C74.7849 20.0116 74.2569 19.9076 73.7129 19.9076C72.6889 19.9076 71.9049 20.2036 71.3609 20.7956C70.8329 21.3876 70.5689 22.1716 70.5689 23.1476V29.6996H67.5929V21.0116C67.5929 19.7316 67.5289 18.5876 67.4009 17.5796H70.2089L70.4489 19.7156C70.7529 18.9316 71.2329 18.3316 71.8889 17.9156C72.5449 17.4996 73.2889 17.2916 74.1209 17.2916ZM88.349 17.5796V29.6996H85.397V27.7556C85.029 28.4276 84.501 28.9556 83.813 29.3396C83.125 29.7076 82.341 29.8916 81.461 29.8916C80.405 29.8916 79.469 29.6356 78.653 29.1236C77.837 28.6116 77.205 27.8836 76.757 26.9396C76.309 25.9956 76.085 24.8996 76.085 23.6516C76.085 22.4036 76.309 21.2996 76.757 20.3396C77.221 19.3636 77.861 18.6116 78.677 18.0836C79.493 17.5396 80.421 17.2676 81.461 17.2676C82.341 17.2676 83.125 17.4596 83.813 17.8436C84.501 18.2116 85.029 18.7316 85.397 19.4036V17.5796H88.349ZM82.277 27.5396C83.269 27.5396 84.037 27.1956 84.581 26.5076C85.125 25.8196 85.397 24.8516 85.397 23.6036C85.397 22.3236 85.125 21.3396 84.581 20.6516C84.037 19.9636 83.261 19.6196 82.253 19.6196C81.261 19.6196 80.485 19.9796 79.925 20.6996C79.381 21.4036 79.109 22.3876 79.109 23.6516C79.109 24.8996 79.381 25.8596 79.925 26.5316C80.485 27.2036 81.269 27.5396 82.277 27.5396ZM97.3524 14.4116C96.0564 14.4116 95.4084 15.1236 95.4084 16.5476V17.5796H98.1204V19.8356H95.4084V29.6996H92.4084V19.8356H90.1044V17.5796H92.4084V16.4036C92.4084 14.9636 92.7684 13.8596 93.4884 13.0916C94.2244 12.3076 95.2724 11.9156 96.6324 11.9156C97.3844 11.9156 98.0164 12.0116 98.5284 12.2036V14.5796C98.0804 14.4676 97.6884 14.4116 97.3524 14.4116ZM111.904 17.5796V29.6996H108.952V27.7556C108.584 28.4276 108.056 28.9556 107.368 29.3396C106.68 29.7076 105.896 29.8916 105.016 29.8916C103.96 29.8916 103.024 29.6356 102.208 29.1236C101.392 28.6116 100.76 27.8836 100.312 26.9396C99.8637 25.9956 99.6397 24.8996 99.6397 23.6516C99.6397 22.4036 99.8637 21.2996 100.312 20.3396C100.776 19.3636 101.416 18.6116 102.232 18.0836C103.048 17.5396 103.976 17.2676 105.016 17.2676C105.896 17.2676 106.68 17.4596 107.368 17.8436C108.056 18.2116 108.584 18.7316 108.952 19.4036V17.5796H111.904ZM105.832 27.5396C106.824 27.5396 107.592 27.1956 108.136 26.5076C108.68 25.8196 108.952 24.8516 108.952 23.6036C108.952 22.3236 108.68 21.3396 108.136 20.6516C107.592 19.9636 106.816 19.6196 105.808 19.6196C104.816 19.6196 104.04 19.9796 103.48 20.6996C102.936 21.4036 102.664 22.3876 102.664 23.6516C102.664 24.8996 102.936 25.8596 103.48 26.5316C104.04 27.2036 104.824 27.5396 105.832 27.5396ZM115.171 12.0356H118.147V29.6996H115.171V12.0356ZM133.141 17.5796V29.3156C133.141 31.2036 132.621 32.6356 131.581 33.6116C130.541 34.5876 129.013 35.0756 126.997 35.0756C125.125 35.0756 123.477 34.6836 122.053 33.8996L122.533 31.6196C124.005 32.3876 125.469 32.7716 126.925 32.7716C129.085 32.7716 130.165 31.6996 130.165 29.5556V27.1556C129.797 27.8116 129.261 28.3476 128.557 28.7636C127.853 29.1636 127.061 29.3636 126.181 29.3636C125.125 29.3636 124.181 29.1156 123.349 28.6196C122.533 28.1076 121.893 27.3956 121.429 26.4836C120.981 25.5556 120.757 24.4996 120.757 23.3156C120.757 22.1316 120.981 21.0836 121.429 20.1716C121.893 19.2436 122.533 18.5316 123.349 18.0356C124.181 17.5236 125.125 17.2676 126.181 17.2676C127.077 17.2676 127.869 17.4596 128.557 17.8436C129.261 18.2116 129.797 18.7316 130.165 19.4036V17.5796H133.141ZM126.973 27.0116C127.965 27.0116 128.741 26.6836 129.301 26.0276C129.877 25.3716 130.165 24.4676 130.165 23.3156C130.165 22.1636 129.885 21.2596 129.325 20.6036C128.765 19.9476 127.981 19.6196 126.973 19.6196C125.981 19.6196 125.197 19.9476 124.621 20.6036C124.061 21.2596 123.781 22.1636 123.781 23.3156C123.781 24.4676 124.061 25.3716 124.621 26.0276C125.197 26.6836 125.981 27.0116 126.973 27.0116ZM147.974 17.5796V29.6996H145.022V27.7556C144.654 28.4276 144.126 28.9556 143.438 29.3396C142.75 29.7076 141.966 29.8916 141.086 29.8916C140.03 29.8916 139.094 29.6356 138.278 29.1236C137.462 28.6116 136.83 27.8836 136.382 26.9396C135.934 25.9956 135.71 24.8996 135.71 23.6516C135.71 22.4036 135.934 21.2996 136.382 20.3396C136.846 19.3636 137.486 18.6116 138.302 18.0836C139.118 17.5396 140.046 17.2676 141.086 17.2676C141.966 17.2676 142.75 17.4596 143.438 17.8436C144.126 18.2116 144.654 18.7316 145.022 19.4036V17.5796H147.974ZM141.902 27.5396C142.894 27.5396 143.662 27.1956 144.206 26.5076C144.75 25.8196 145.022 24.8516 145.022 23.6036C145.022 22.3236 144.75 21.3396 144.206 20.6516C143.662 19.9636 142.886 19.6196 141.878 19.6196C140.886 19.6196 140.11 19.9796 139.55 20.6996C139.006 21.4036 138.734 22.3876 138.734 23.6516C138.734 24.8996 139.006 25.8596 139.55 26.5316C140.11 27.2036 140.894 27.5396 141.902 27.5396ZM157.769 17.2916C158.233 17.2916 158.633 17.3556 158.969 17.4836L158.945 20.2196C158.433 20.0116 157.905 19.9076 157.361 19.9076C156.337 19.9076 155.553 20.2036 155.009 20.7956C154.481 21.3876 154.217 22.1716 154.217 23.1476V29.6996H151.241V21.0116C151.241 19.7316 151.177 18.5876 151.049 17.5796H153.857L154.097 19.7156C154.401 18.9316 154.881 18.3316 155.537 17.9156C156.193 17.4996 156.937 17.2916 157.769 17.2916Z" fill="#233348"/>
<ellipse cx="20.5" cy="19.4736" rx="20.5" ry="19.4736" fill="#458FF6"/>
<path d="M19.344 14.9937H13.312V12.2377H28.782V14.9937H22.724V30.7497H19.344V14.9937Z" fill="white"/>
</svg>
